
<!-- version 1-->
<!-- <svg width="130" height="130" viewBox="0 0 280 327" fill="none" xmlns="http://www.w3.org/2000/svg">
				<path fill-rule="evenodd" clip-rule="evenodd"
					d="M111 327C172.304 327 222 277.975 222 217.5C222 157.025 172.304 108 111 108C49.6964 108 0 157.025 0 217.5C0 277.975 49.6964 327 111 327ZM111.5 319C165.9 319 210 273.557 210 217.5C210 161.443 165.9 116 111.5 116C57.1 116 13 161.443 13 217.5C13 273.557 57.1 319 111.5 319Z"
					fill="#f79862" />
				<ellipse cx="61" cy="197.5" rx="11" ry="11.5" fill="#f79862" />
				<path fill-rule="evenodd" clip-rule="evenodd"
					d="M195.568 51.6789C149.01 23.1374 91.7326 31.8669 67.6341 71.1767C43.5357 110.486 61.7422 165.491 108.3 194.032C154.857 222.574 212.135 213.844 236.233 174.535C260.332 135.225 242.125 80.2204 195.568 51.6789ZM190.181 60.4662C150.947 36.4143 102.018 44.8492 80.8947 79.306C59.7714 113.763 74.4528 161.193 113.687 185.245C152.92 209.297 201.849 200.862 222.973 166.405C244.096 131.949 229.415 84.518 190.181 60.4662Z"
					fill="#f79862" />
				<path
					d="M65 63.5L83 89.5L109.5 55L142 49.5L179 57.5L216.5 90L230 134L214.5 177.5L215.5 180L217.5 185.5L219 189.5L219.5 193L235 185.5L244 173.5L250.5 118.5L220 65L167 34L107 32L65 63.5Z"
					fill="#434857" />
				<path d="M221.5 192L209 200.5L208 224.5L200 255.5L175.5 284.5L199 287.5L223 272.5L230.5 242L221.5 192Z"
					fill="#3b434f" />
			</svg> -->


			<!-- version 2 -->

			<svg width="100px" height="100px" viewBox="0 0 430 624" fill="none" xmlns="http://www.w3.org/2000/svg">
<path d="M209.514 0C197.578 0 187.899 13.6425 187.899 30.4474C187.899 47.2524 197.578 60.8949 209.514 60.8949C221.45 60.8949 231.129 47.2524 231.129 30.4474C231.129 13.6425 221.45 0 209.514 0ZM275.283 32.632C304.737 56.658 325.887 76.9233 332.378 130.802C338.066 78.7649 326.177 51.7593 275.283 32.632V32.632ZM157.966 33.4511C116.131 42.3687 90.1151 79.5846 100.871 126.227C99.5492 102.685 117.706 59.5656 157.966 33.4511ZM182.709 65.4689C175.677 65.6641 169.579 67.2767 164.365 71.8178C184.009 68.2139 213.378 94.6971 254.664 67.8584C224.625 73.8801 200.68 64.9704 182.709 65.4689V65.4689ZM171.19 85.335C161.139 85.5303 152.407 87.1427 144.954 91.6839C173.034 88.0799 215.059 114.563 274.074 87.7241C231.135 93.7458 196.879 84.8365 171.19 85.335V85.335ZM161.947 106.566C149.457 106.761 138.572 108.374 129.312 112.915C164.204 109.311 216.385 135.794 289.717 108.956C236.361 114.977 193.867 106.068 161.947 106.566V106.566ZM87.575 133.737C36.4398 133.903 -15.081 167.124 4.10209 180.091C26.3445 195.001 71.4453 236.255 88.7127 272.253C77.3639 224.402 26.8279 182.654 15.6203 175.517C63.8399 138.934 132.02 148.447 151.495 212.177C156.547 250.196 163.524 276.932 171.83 296.897C166.019 307.179 156.479 315.196 145.452 311.848C157.576 331.899 170.346 327.949 180.149 313.964C202.389 353.304 231.084 359.35 256.512 395.271C272.683 412.146 291.844 466.431 259.356 484.156C259.327 484.156 259.316 484.226 259.285 484.226C226.772 502.915 200.676 515.473 187.046 530.171C127.7 590.871 198.798 626.098 210.51 623.903C202.181 619.24 150.705 585.251 197.854 540.684C210.792 526.73 233.922 512.142 266.111 493.647C302.648 469.078 310.626 428.549 269.524 382.576C210.467 309.601 177.771 317.614 171.404 206.921C162.045 151.092 124.891 133.617 87.5753 133.738L87.575 133.737ZM330.031 140.359C291.769 142.481 264.902 158.357 247.482 185.416C235.599 203.874 227.557 260.183 238.168 284.063C250.031 310.759 271.429 336.39 287.299 361.684C317.136 415.021 332.694 456.493 306.141 482.313C238.375 528.105 235.572 534.8 214.349 560.07C237.337 538.175 299.46 503.809 316.309 490.027C339.216 471.035 337.653 441.672 334.155 425.173C329.215 401.87 316.751 373.53 300.88 348.234C285.009 322.939 258.701 282.742 257.508 272.253C256.651 264.718 248.179 220.954 267.249 195.997C319.639 125.016 421.634 187.325 414.998 202.756C356.717 240.06 349.327 258.51 341.763 298.604C352.343 243.372 429.084 216.487 430 203.302C422.797 178.028 393.583 141.395 330.031 140.359V140.359ZM209.585 148.756C202.945 148.756 197.569 154.136 197.569 160.839V170.192C197.569 170.541 197.612 170.875 197.639 171.216C192.458 175.606 189.036 182.781 189.036 190.877C189.036 204.235 198.253 215.044 209.584 215.044C220.916 215.044 230.062 204.235 230.062 190.877C230.062 182.787 226.704 175.607 221.529 171.216C221.556 170.874 221.529 170.541 221.529 170.192V160.839C221.529 154.136 216.225 148.756 209.584 148.756H209.585ZM320.788 178.316C290.973 188.582 256.854 215.073 266.467 266.518C266.387 229.614 300.992 192.089 320.788 178.316ZM103.929 198.728C122.125 214.537 138.496 226.749 143.959 262.49C151.52 241.278 136.795 197.803 103.929 198.728Z" fill="#f19460"/>
</svg>
